<?xml version="1.0" encoding="utf-8" standalone="no"?>
<!DOCTYPE svg PUBLIC "-//W3C//DTD SVG 1.1//EN"
  "http://www.w3.org/Graphics/SVG/1.1/DTD/svg11.dtd">
<svg xmlns:xlink="http://www.w3.org/1999/xlink" width="639.48875pt" height="351.689375pt" viewBox="0 0 639.48875 351.689375" xmlns="http://www.w3.org/2000/svg" version="1.1">
 <metadata>
  <rdf:RDF xmlns:dc="http://purl.org/dc/elements/1.1/" xmlns:cc="http://creativecommons.org/ns#" xmlns:rdf="http://www.w3.org/1999/02/22-rdf-syntax-ns#">
   <cc:Work>
    <dc:type rdf:resource="http://purl.org/dc/dcmitype/StillImage"/>
    <dc:date>2024-10-06T17:26:31.463805</dc:date>
    <dc:format>image/svg+xml</dc:format>
    <dc:creator>
     <cc:Agent>
      <dc:title>Matplotlib v3.9.2, https://matplotlib.org/</dc:title>
     </cc:Agent>
    </dc:creator>
   </cc:Work>
  </rdf:RDF>
 </metadata>
 <defs>
  <style type="text/css">*{stroke-linejoin: round; stroke-linecap: butt}</style>
 </defs>
 <g id="figure_1">
  <g id="patch_1">
   <path d="M 0 351.689375 
L 639.48875 351.689375 
L 639.48875 0 
L 0 0 
z
" style="fill: #ffffff"/>
  </g>
  <g id="axes_1">
   <g id="patch_2">
    <path d="M 39.03875 315.6975 
L 632.28875 315.6975 
L 632.28875 25.3575 
L 39.03875 25.3575 
z
" style="fill: #eaeaf2"/>
   </g>
   <g id="matplotlib.axis_1">
    <g id="xtick_1">
     <g id="line2d_1">
      <path d="M 77.1075 315.6975 
L 77.1075 25.3575 
" clip-path="url(#pe100f340fd)" style="fill: none; stroke: #ffffff; stroke-width: 0.8; stroke-linecap: round"/>
     </g>
     <g id="line2d_2"/>
     <g id="text_1">
      <!-- 32.5 -->
      <g style="fill: #262626" transform="translate(65.974687 326.795938) scale(0.1 -0.1)">
       <defs>
        <path id="DejaVuSans-33" d="M 2597 2516 
Q 3050 2419 3304 2112 
Q 3559 1806 3559 1356 
Q 3559 666 3084 287 
Q 2609 -91 1734 -91 
Q 1441 -91 1130 -33 
Q 819 25 488 141 
L 488 750 
Q 750 597 1062 519 
Q 1375 441 1716 441 
Q 2309 441 2620 675 
Q 2931 909 2931 1356 
Q 2931 1769 2642 2001 
Q 2353 2234 1838 2234 
L 1294 2234 
L 1294 2753 
L 1863 2753 
Q 2328 2753 2575 2939 
Q 2822 3125 2822 3475 
Q 2822 3834 2567 4026 
Q 2313 4219 1838 4219 
Q 1578 4219 1281 4162 
Q 984 4106 628 3988 
L 628 4550 
Q 988 4650 1302 4700 
Q 1616 4750 1894 4750 
Q 2613 4750 3031 4423 
Q 3450 4097 3450 3541 
Q 3450 3153 3228 2886 
Q 3006 2619 2597 2516 
z
" transform="scale(0.015625)"/>
        <path id="DejaVuSans-32" d="M 1228 531 
L 3431 531 
L 3431 0 
L 469 0 
L 469 531 
Q 828 903 1448 1529 
Q 2069 2156 2228 2338 
Q 2531 2678 2651 2914 
Q 2772 3150 2772 3378 
Q 2772 3750 2511 3984 
Q 2250 4219 1831 4219 
Q 1534 4219 1204 4116 
Q 875 4013 500 3803 
L 500 4441 
Q 881 4594 1212 4672 
Q 1544 4750 1819 4750 
Q 2544 4750 2975 4387 
Q 3406 4025 3406 3419 
Q 3406 3131 3298 2873 
Q 3191 2616 2906 2266 
Q 2828 2175 2409 1742 
Q 1991 1309 1228 531 
z
" transform="scale(0.015625)"/>
        <path id="DejaVuSans-2e" d="M 684 794 
L 1344 794 
L 1344 0 
L 684 0 
L 684 794 
z
" transform="scale(0.015625)"/>
        <path id="DejaVuSans-35" d="M 691 4666 
L 3169 4666 
L 3169 4134 
L 1269 4134 
L 1269 2991 
Q 1406 3038 1543 3061 
Q 1681 3084 1819 3084 
Q 2600 3084 3056 2656 
Q 3513 2228 3513 1497 
Q 3513 744 3044 326 
Q 2575 -91 1722 -91 
Q 1428 -91 1123 -41 
Q 819 9 494 109 
L 494 744 
Q 775 591 1075 516 
Q 1375 441 1709 441 
Q 2250 441 2565 725 
Q 2881 1009 2881 1497 
Q 2881 1984 2565 2268 
Q 2250 2553 1709 2553 
Q 1456 2553 1204 2497 
Q 953 2441 691 2322 
L 691 4666 
z
" transform="scale(0.015625)"/>
       </defs>
       <use xlink:href="#DejaVuSans-33"/>
       <use xlink:href="#DejaVuSans-32" x="63.623047"/>
       <use xlink:href="#DejaVuSans-2e" x="127.246094"/>
       <use xlink:href="#DejaVuSans-35" x="159.033203"/>
      </g>
     </g>
    </g>
    <g id="xtick_2">
     <g id="line2d_3">
      <path d="M 158.503988 315.6975 
L 158.503988 25.3575 
" clip-path="url(#pe100f340fd)" style="fill: none; stroke: #ffffff; stroke-width: 0.8; stroke-linecap: round"/>
     </g>
     <g id="line2d_4"/>
     <g id="text_2">
      <!-- 35.0 -->
      <g style="fill: #262626" transform="translate(147.371175 326.795938) scale(0.1 -0.1)">
       <defs>
        <path id="DejaVuSans-30" d="M 2034 4250 
Q 1547 4250 1301 3770 
Q 1056 3291 1056 2328 
Q 1056 1369 1301 889 
Q 1547 409 2034 409 
Q 2525 409 2770 889 
Q 3016 1369 3016 2328 
Q 3016 3291 2770 3770 
Q 2525 4250 2034 4250 
z
M 2034 4750 
Q 2819 4750 3233 4129 
Q 3647 3509 3647 2328 
Q 3647 1150 3233 529 
Q 2819 -91 2034 -91 
Q 1250 -91 836 529 
Q 422 1150 422 2328 
Q 422 3509 836 4129 
Q 1250 4750 2034 4750 
z
" transform="scale(0.015625)"/>
       </defs>
       <use xlink:href="#DejaVuSans-33"/>
       <use xlink:href="#DejaVuSans-35" x="63.623047"/>
       <use xlink:href="#DejaVuSans-2e" x="127.246094"/>
       <use xlink:href="#DejaVuSans-30" x="159.033203"/>
      </g>
     </g>
    </g>
    <g id="xtick_3">
     <g id="line2d_5">
      <path d="M 239.900476 315.6975 
L 239.900476 25.3575 
" clip-path="url(#pe100f340fd)" style="fill: none; stroke: #ffffff; stroke-width: 0.8; stroke-linecap: round"/>
     </g>
     <g id="line2d_6"/>
     <g id="text_3">
      <!-- 37.5 -->
      <g style="fill: #262626" transform="translate(228.767664 326.795938) scale(0.1 -0.1)">
       <defs>
        <path id="DejaVuSans-37" d="M 525 4666 
L 3525 4666 
L 3525 4397 
L 1831 0 
L 1172 0 
L 2766 4134 
L 525 4134 
L 525 4666 
z
" transform="scale(0.015625)"/>
       </defs>
       <use xlink:href="#DejaVuSans-33"/>
       <use xlink:href="#DejaVuSans-37" x="63.623047"/>
       <use xlink:href="#DejaVuSans-2e" x="127.246094"/>
       <use xlink:href="#DejaVuSans-35" x="159.033203"/>
      </g>
     </g>
    </g>
    <g id="xtick_4">
     <g id="line2d_7">
      <path d="M 321.296964 315.6975 
L 321.296964 25.3575 
" clip-path="url(#pe100f340fd)" style="fill: none; stroke: #ffffff; stroke-width: 0.8; stroke-linecap: round"/>
     </g>
     <g id="line2d_8"/>
     <g id="text_4">
      <!-- 40.0 -->
      <g style="fill: #262626" transform="translate(310.164152 326.795938) scale(0.1 -0.1)">
       <defs>
        <path id="DejaVuSans-34" d="M 2419 4116 
L 825 1625 
L 2419 1625 
L 2419 4116 
z
M 2253 4666 
L 3047 4666 
L 3047 1625 
L 3713 1625 
L 3713 1100 
L 3047 1100 
L 3047 0 
L 2419 0 
L 2419 1100 
L 313 1100 
L 313 1709 
L 2253 4666 
z
" transform="scale(0.015625)"/>
       </defs>
       <use xlink:href="#DejaVuSans-34"/>
       <use xlink:href="#DejaVuSans-30" x="63.623047"/>
       <use xlink:href="#DejaVuSans-2e" x="127.246094"/>
       <use xlink:href="#DejaVuSans-30" x="159.033203"/>
      </g>
     </g>
    </g>
    <g id="xtick_5">
     <g id="line2d_9">
      <path d="M 402.693452 315.6975 
L 402.693452 25.3575 
" clip-path="url(#pe100f340fd)" style="fill: none; stroke: #ffffff; stroke-width: 0.8; stroke-linecap: round"/>
     </g>
     <g id="line2d_10"/>
     <g id="text_5">
      <!-- 42.5 -->
      <g style="fill: #262626" transform="translate(391.56064 326.795938) scale(0.1 -0.1)">
       <use xlink:href="#DejaVuSans-34"/>
       <use xlink:href="#DejaVuSans-32" x="63.623047"/>
       <use xlink:href="#DejaVuSans-2e" x="127.246094"/>
       <use xlink:href="#DejaVuSans-35" x="159.033203"/>
      </g>
     </g>
    </g>
    <g id="xtick_6">
     <g id="line2d_11">
      <path d="M 484.089941 315.6975 
L 484.089941 25.3575 
" clip-path="url(#pe100f340fd)" style="fill: none; stroke: #ffffff; stroke-width: 0.8; stroke-linecap: round"/>
     </g>
     <g id="line2d_12"/>
     <g id="text_6">
      <!-- 45.0 -->
      <g style="fill: #262626" transform="translate(472.957128 326.795938) scale(0.1 -0.1)">
       <use xlink:href="#DejaVuSans-34"/>
       <use xlink:href="#DejaVuSans-35" x="63.623047"/>
       <use xlink:href="#DejaVuSans-2e" x="127.246094"/>
       <use xlink:href="#DejaVuSans-30" x="159.033203"/>
      </g>
     </g>
    </g>
    <g id="xtick_7">
     <g id="line2d_13">
      <path d="M 565.486429 315.6975 
L 565.486429 25.3575 
" clip-path="url(#pe100f340fd)" style="fill: none; stroke: #ffffff; stroke-width: 0.8; stroke-linecap: round"/>
     </g>
     <g id="line2d_14"/>
     <g id="text_7">
      <!-- 47.5 -->
      <g style="fill: #262626" transform="translate(554.353616 326.795938) scale(0.1 -0.1)">
       <use xlink:href="#DejaVuSans-34"/>
       <use xlink:href="#DejaVuSans-37" x="63.623047"/>
       <use xlink:href="#DejaVuSans-2e" x="127.246094"/>
       <use xlink:href="#DejaVuSans-35" x="159.033203"/>
      </g>
     </g>
    </g>
    <g id="text_8">
     <!-- PSNR (dB) -->
     <g style="fill: #262626" transform="translate(300.862812 341.99375) scale(0.12 -0.12)">
      <defs>
       <path id="DejaVuSans-Bold-50" d="M 588 4666 
L 2584 4666 
Q 3475 4666 3951 4270 
Q 4428 3875 4428 3144 
Q 4428 2409 3951 2014 
Q 3475 1619 2584 1619 
L 1791 1619 
L 1791 0 
L 588 0 
L 588 4666 
z
M 1791 3794 
L 1791 2491 
L 2456 2491 
Q 2806 2491 2997 2661 
Q 3188 2831 3188 3144 
Q 3188 3456 2997 3625 
Q 2806 3794 2456 3794 
L 1791 3794 
z
" transform="scale(0.015625)"/>
       <path id="DejaVuSans-Bold-53" d="M 3834 4519 
L 3834 3531 
Q 3450 3703 3084 3790 
Q 2719 3878 2394 3878 
Q 1963 3878 1756 3759 
Q 1550 3641 1550 3391 
Q 1550 3203 1689 3098 
Q 1828 2994 2194 2919 
L 2706 2816 
Q 3484 2659 3812 2340 
Q 4141 2022 4141 1434 
Q 4141 663 3683 286 
Q 3225 -91 2284 -91 
Q 1841 -91 1394 -6 
Q 947 78 500 244 
L 500 1259 
Q 947 1022 1364 901 
Q 1781 781 2169 781 
Q 2563 781 2772 912 
Q 2981 1044 2981 1288 
Q 2981 1506 2839 1625 
Q 2697 1744 2272 1838 
L 1806 1941 
Q 1106 2091 782 2419 
Q 459 2747 459 3303 
Q 459 4000 909 4375 
Q 1359 4750 2203 4750 
Q 2588 4750 2994 4692 
Q 3400 4634 3834 4519 
z
" transform="scale(0.015625)"/>
       <path id="DejaVuSans-Bold-4e" d="M 588 4666 
L 1931 4666 
L 3628 1466 
L 3628 4666 
L 4769 4666 
L 4769 0 
L 3425 0 
L 1728 3200 
L 1728 0 
L 588 0 
L 588 4666 
z
" transform="scale(0.015625)"/>
       <path id="DejaVuSans-Bold-52" d="M 2297 2597 
Q 2675 2597 2839 2737 
Q 3003 2878 3003 3200 
Q 3003 3519 2839 3656 
Q 2675 3794 2297 3794 
L 1791 3794 
L 1791 2597 
L 2297 2597 
z
M 1791 1766 
L 1791 0 
L 588 0 
L 588 4666 
L 2425 4666 
Q 3347 4666 3776 4356 
Q 4206 4047 4206 3378 
Q 4206 2916 3982 2619 
Q 3759 2322 3309 2181 
Q 3556 2125 3751 1926 
Q 3947 1728 4147 1325 
L 4800 0 
L 3519 0 
L 2950 1159 
Q 2778 1509 2601 1637 
Q 2425 1766 2131 1766 
L 1791 1766 
z
" transform="scale(0.015625)"/>
       <path id="DejaVuSans-Bold-20" transform="scale(0.015625)"/>
       <path id="DejaVuSans-Bold-28" d="M 2413 -844 
L 1484 -844 
Q 1006 -72 778 623 
Q 550 1319 550 2003 
Q 550 2688 779 3389 
Q 1009 4091 1484 4856 
L 2413 4856 
Q 2013 4116 1813 3408 
Q 1613 2700 1613 2009 
Q 1613 1319 1811 609 
Q 2009 -100 2413 -844 
z
" transform="scale(0.015625)"/>
       <path id="DejaVuSans-Bold-64" d="M 2919 2988 
L 2919 4863 
L 4044 4863 
L 4044 0 
L 2919 0 
L 2919 506 
Q 2688 197 2409 53 
Q 2131 -91 1766 -91 
Q 1119 -91 703 423 
Q 288 938 288 1747 
Q 288 2556 703 3070 
Q 1119 3584 1766 3584 
Q 2128 3584 2408 3439 
Q 2688 3294 2919 2988 
z
M 2181 722 
Q 2541 722 2730 984 
Q 2919 1247 2919 1747 
Q 2919 2247 2730 2509 
Q 2541 2772 2181 2772 
Q 1825 2772 1636 2509 
Q 1447 2247 1447 1747 
Q 1447 1247 1636 984 
Q 1825 722 2181 722 
z
" transform="scale(0.015625)"/>
       <path id="DejaVuSans-Bold-42" d="M 2456 2859 
Q 2741 2859 2887 2984 
Q 3034 3109 3034 3353 
Q 3034 3594 2887 3720 
Q 2741 3847 2456 3847 
L 1791 3847 
L 1791 2859 
L 2456 2859 
z
M 2497 819 
Q 2859 819 3042 972 
Q 3225 1125 3225 1434 
Q 3225 1738 3044 1889 
Q 2863 2041 2497 2041 
L 1791 2041 
L 1791 819 
L 2497 819 
z
M 3616 2497 
Q 4003 2384 4215 2081 
Q 4428 1778 4428 1338 
Q 4428 663 3972 331 
Q 3516 0 2584 0 
L 588 0 
L 588 4666 
L 2394 4666 
Q 3366 4666 3802 4372 
Q 4238 4078 4238 3431 
Q 4238 3091 4078 2852 
Q 3919 2613 3616 2497 
z
" transform="scale(0.015625)"/>
       <path id="DejaVuSans-Bold-29" d="M 513 -844 
Q 913 -100 1113 609 
Q 1313 1319 1313 2009 
Q 1313 2700 1113 3408 
Q 913 4116 513 4856 
L 1441 4856 
Q 1916 4091 2145 3389 
Q 2375 2688 2375 2003 
Q 2375 1319 2147 623 
Q 1919 -72 1441 -844 
L 513 -844 
z
" transform="scale(0.015625)"/>
      </defs>
      <use xlink:href="#DejaVuSans-Bold-50"/>
      <use xlink:href="#DejaVuSans-Bold-53" x="73.291016"/>
      <use xlink:href="#DejaVuSans-Bold-4e" x="145.3125"/>
      <use xlink:href="#DejaVuSans-Bold-52" x="229.003906"/>
      <use xlink:href="#DejaVuSans-Bold-20" x="306.005859"/>
      <use xlink:href="#DejaVuSans-Bold-28" x="340.820312"/>
      <use xlink:href="#DejaVuSans-Bold-64" x="386.523438"/>
      <use xlink:href="#DejaVuSans-Bold-42" x="458.105469"/>
      <use xlink:href="#DejaVuSans-Bold-29" x="534.326172"/>
     </g>
    </g>
   </g>
   <g id="matplotlib.axis_2">
    <g id="ytick_1">
     <g id="line2d_15">
      <path d="M 39.03875 315.6975 
L 632.28875 315.6975 
" clip-path="url(#pe100f340fd)" style="fill: none; stroke: #ffffff; stroke-width: 0.8; stroke-linecap: round"/>
     </g>
     <g id="line2d_16"/>
     <g id="text_9">
      <!-- 0 -->
      <g style="fill: #262626" transform="translate(29.17625 319.496719) scale(0.1 -0.1)">
       <use xlink:href="#DejaVuSans-30"/>
      </g>
     </g>
    </g>
    <g id="ytick_2">
     <g id="line2d_17">
      <path d="M 39.03875 268.830672 
L 632.28875 268.830672 
" clip-path="url(#pe100f340fd)" style="fill: none; stroke: #ffffff; stroke-width: 0.8; stroke-linecap: round"/>
     </g>
     <g id="line2d_18"/>
     <g id="text_10">
      <!-- 10 -->
      <g style="fill: #262626" transform="translate(22.81375 272.629891) scale(0.1 -0.1)">
       <defs>
        <path id="DejaVuSans-31" d="M 794 531 
L 1825 531 
L 1825 4091 
L 703 3866 
L 703 4441 
L 1819 4666 
L 2450 4666 
L 2450 531 
L 3481 531 
L 3481 0 
L 794 0 
L 794 531 
z
" transform="scale(0.015625)"/>
       </defs>
       <use xlink:href="#DejaVuSans-31"/>
       <use xlink:href="#DejaVuSans-30" x="63.623047"/>
      </g>
     </g>
    </g>
    <g id="ytick_3">
     <g id="line2d_19">
      <path d="M 39.03875 221.963844 
L 632.28875 221.963844 
" clip-path="url(#pe100f340fd)" style="fill: none; stroke: #ffffff; stroke-width: 0.8; stroke-linecap: round"/>
     </g>
     <g id="line2d_20"/>
     <g id="text_11">
      <!-- 20 -->
      <g style="fill: #262626" transform="translate(22.81375 225.763063) scale(0.1 -0.1)">
       <use xlink:href="#DejaVuSans-32"/>
       <use xlink:href="#DejaVuSans-30" x="63.623047"/>
      </g>
     </g>
    </g>
    <g id="ytick_4">
     <g id="line2d_21">
      <path d="M 39.03875 175.097016 
L 632.28875 175.097016 
" clip-path="url(#pe100f340fd)" style="fill: none; stroke: #ffffff; stroke-width: 0.8; stroke-linecap: round"/>
     </g>
     <g id="line2d_22"/>
     <g id="text_12">
      <!-- 30 -->
      <g style="fill: #262626" transform="translate(22.81375 178.896234) scale(0.1 -0.1)">
       <use xlink:href="#DejaVuSans-33"/>
       <use xlink:href="#DejaVuSans-30" x="63.623047"/>
      </g>
     </g>
    </g>
    <g id="ytick_5">
     <g id="line2d_23">
      <path d="M 39.03875 128.230188 
L 632.28875 128.230188 
" clip-path="url(#pe100f340fd)" style="fill: none; stroke: #ffffff; stroke-width: 0.8; stroke-linecap: round"/>
     </g>
     <g id="line2d_24"/>
     <g id="text_13">
      <!-- 40 -->
      <g style="fill: #262626" transform="translate(22.81375 132.029406) scale(0.1 -0.1)">
       <use xlink:href="#DejaVuSans-34"/>
       <use xlink:href="#DejaVuSans-30" x="63.623047"/>
      </g>
     </g>
    </g>
    <g id="ytick_6">
     <g id="line2d_25">
      <path d="M 39.03875 81.36336 
L 632.28875 81.36336 
" clip-path="url(#pe100f340fd)" style="fill: none; stroke: #ffffff; stroke-width: 0.8; stroke-linecap: round"/>
     </g>
     <g id="line2d_26"/>
     <g id="text_14">
      <!-- 50 -->
      <g style="fill: #262626" transform="translate(22.81375 85.162578) scale(0.1 -0.1)">
       <use xlink:href="#DejaVuSans-35"/>
       <use xlink:href="#DejaVuSans-30" x="63.623047"/>
      </g>
     </g>
    </g>
    <g id="ytick_7">
     <g id="line2d_27">
      <path d="M 39.03875 34.496531 
L 632.28875 34.496531 
" clip-path="url(#pe100f340fd)" style="fill: none; stroke: #ffffff; stroke-width: 0.8; stroke-linecap: round"/>
     </g>
     <g id="line2d_28"/>
     <g id="text_15">
      <!-- 60 -->
      <g style="fill: #262626" transform="translate(22.81375 38.29575) scale(0.1 -0.1)">
       <defs>
        <path id="DejaVuSans-36" d="M 2113 2584 
Q 1688 2584 1439 2293 
Q 1191 2003 1191 1497 
Q 1191 994 1439 701 
Q 1688 409 2113 409 
Q 2538 409 2786 701 
Q 3034 994 3034 1497 
Q 3034 2003 2786 2293 
Q 2538 2584 2113 2584 
z
M 3366 4563 
L 3366 3988 
Q 3128 4100 2886 4159 
Q 2644 4219 2406 4219 
Q 1781 4219 1451 3797 
Q 1122 3375 1075 2522 
Q 1259 2794 1537 2939 
Q 1816 3084 2150 3084 
Q 2853 3084 3261 2657 
Q 3669 2231 3669 1497 
Q 3669 778 3244 343 
Q 2819 -91 2113 -91 
Q 1303 -91 875 529 
Q 447 1150 447 2328 
Q 447 3434 972 4092 
Q 1497 4750 2381 4750 
Q 2619 4750 2861 4703 
Q 3103 4656 3366 4563 
z
" transform="scale(0.015625)"/>
       </defs>
       <use xlink:href="#DejaVuSans-36"/>
       <use xlink:href="#DejaVuSans-30" x="63.623047"/>
      </g>
     </g>
    </g>
    <g id="text_16">
     <!-- Frequency -->
     <g style="fill: #262626" transform="translate(16.224375 205.647188) rotate(-90) scale(0.12 -0.12)">
      <defs>
       <path id="DejaVuSans-Bold-46" d="M 588 4666 
L 3834 4666 
L 3834 3756 
L 1791 3756 
L 1791 2888 
L 3713 2888 
L 3713 1978 
L 1791 1978 
L 1791 0 
L 588 0 
L 588 4666 
z
" transform="scale(0.015625)"/>
       <path id="DejaVuSans-Bold-72" d="M 3138 2547 
Q 2991 2616 2845 2648 
Q 2700 2681 2553 2681 
Q 2122 2681 1889 2404 
Q 1656 2128 1656 1613 
L 1656 0 
L 538 0 
L 538 3500 
L 1656 3500 
L 1656 2925 
Q 1872 3269 2151 3426 
Q 2431 3584 2822 3584 
Q 2878 3584 2943 3579 
Q 3009 3575 3134 3559 
L 3138 2547 
z
" transform="scale(0.015625)"/>
       <path id="DejaVuSans-Bold-65" d="M 4031 1759 
L 4031 1441 
L 1416 1441 
Q 1456 1047 1700 850 
Q 1944 653 2381 653 
Q 2734 653 3104 758 
Q 3475 863 3866 1075 
L 3866 213 
Q 3469 63 3072 -14 
Q 2675 -91 2278 -91 
Q 1328 -91 801 392 
Q 275 875 275 1747 
Q 275 2603 792 3093 
Q 1309 3584 2216 3584 
Q 3041 3584 3536 3087 
Q 4031 2591 4031 1759 
z
M 2881 2131 
Q 2881 2450 2695 2645 
Q 2509 2841 2209 2841 
Q 1884 2841 1681 2658 
Q 1478 2475 1428 2131 
L 2881 2131 
z
" transform="scale(0.015625)"/>
       <path id="DejaVuSans-Bold-71" d="M 2181 2772 
Q 1825 2772 1636 2509 
Q 1447 2247 1447 1747 
Q 1447 1247 1636 984 
Q 1825 722 2181 722 
Q 2541 722 2730 984 
Q 2919 1247 2919 1747 
Q 2919 2247 2730 2509 
Q 2541 2772 2181 2772 
z
M 2919 506 
Q 2688 197 2409 53 
Q 2131 -91 1766 -91 
Q 1119 -91 703 423 
Q 288 938 288 1747 
Q 288 2556 703 3067 
Q 1119 3578 1766 3578 
Q 2131 3578 2409 3434 
Q 2688 3291 2919 2981 
L 2919 3500 
L 4044 3500 
L 4044 -1331 
L 2919 -1331 
L 2919 506 
z
" transform="scale(0.015625)"/>
       <path id="DejaVuSans-Bold-75" d="M 500 1363 
L 500 3500 
L 1625 3500 
L 1625 3150 
Q 1625 2866 1622 2436 
Q 1619 2006 1619 1863 
Q 1619 1441 1641 1255 
Q 1663 1069 1716 984 
Q 1784 875 1895 815 
Q 2006 756 2150 756 
Q 2500 756 2700 1025 
Q 2900 1294 2900 1772 
L 2900 3500 
L 4019 3500 
L 4019 0 
L 2900 0 
L 2900 506 
Q 2647 200 2364 54 
Q 2081 -91 1741 -91 
Q 1134 -91 817 281 
Q 500 653 500 1363 
z
" transform="scale(0.015625)"/>
       <path id="DejaVuSans-Bold-6e" d="M 4056 2131 
L 4056 0 
L 2931 0 
L 2931 347 
L 2931 1631 
Q 2931 2084 2911 2256 
Q 2891 2428 2841 2509 
Q 2775 2619 2662 2680 
Q 2550 2741 2406 2741 
Q 2056 2741 1856 2470 
Q 1656 2200 1656 1722 
L 1656 0 
L 538 0 
L 538 3500 
L 1656 3500 
L 1656 2988 
Q 1909 3294 2193 3439 
Q 2478 3584 2822 3584 
Q 3428 3584 3742 3212 
Q 4056 2841 4056 2131 
z
" transform="scale(0.015625)"/>
       <path id="DejaVuSans-Bold-63" d="M 3366 3391 
L 3366 2478 
Q 3138 2634 2908 2709 
Q 2678 2784 2431 2784 
Q 1963 2784 1702 2511 
Q 1441 2238 1441 1747 
Q 1441 1256 1702 982 
Q 1963 709 2431 709 
Q 2694 709 2930 787 
Q 3166 866 3366 1019 
L 3366 103 
Q 3103 6 2833 -42 
Q 2563 -91 2291 -91 
Q 1344 -91 809 395 
Q 275 881 275 1747 
Q 275 2613 809 3098 
Q 1344 3584 2291 3584 
Q 2566 3584 2833 3536 
Q 3100 3488 3366 3391 
z
" transform="scale(0.015625)"/>
       <path id="DejaVuSans-Bold-79" d="M 78 3500 
L 1197 3500 
L 2138 1125 
L 2938 3500 
L 4056 3500 
L 2584 -331 
Q 2363 -916 2067 -1148 
Q 1772 -1381 1288 -1381 
L 641 -1381 
L 641 -647 
L 991 -647 
Q 1275 -647 1404 -556 
Q 1534 -466 1606 -231 
L 1638 -134 
L 78 3500 
z
" transform="scale(0.015625)"/>
      </defs>
      <use xlink:href="#DejaVuSans-Bold-46"/>
      <use xlink:href="#DejaVuSans-Bold-72" x="61.935547"/>
      <use xlink:href="#DejaVuSans-Bold-65" x="111.251953"/>
      <use xlink:href="#DejaVuSans-Bold-71" x="179.074219"/>
      <use xlink:href="#DejaVuSans-Bold-75" x="250.65625"/>
      <use xlink:href="#DejaVuSans-Bold-65" x="321.847656"/>
      <use xlink:href="#DejaVuSans-Bold-6e" x="389.669922"/>
      <use xlink:href="#DejaVuSans-Bold-63" x="460.861328"/>
      <use xlink:href="#DejaVuSans-Bold-79" x="520.138672"/>
     </g>
    </g>
   </g>
   <g id="patch_3">
    <path d="M 66.004659 315.6975 
L 77.011153 315.6975 
L 77.011153 311.010817 
L 66.004659 311.010817 
z
" clip-path="url(#pe100f340fd)" style="fill: #42a5f5"/>
   </g>
   <g id="patch_4">
    <path d="M 77.011153 315.6975 
L 88.017646 315.6975 
L 88.017646 301.637452 
L 77.011153 301.637452 
z
" clip-path="url(#pe100f340fd)" style="fill: #42a5f5"/>
   </g>
   <g id="patch_5">
    <path d="M 88.017646 315.6975 
L 99.02414 315.6975 
L 99.02414 315.6975 
L 88.017646 315.6975 
z
" clip-path="url(#pe100f340fd)" style="fill: #42a5f5"/>
   </g>
   <g id="patch_6">
    <path d="M 99.02414 315.6975 
L 110.030633 315.6975 
L 110.030633 315.6975 
L 99.02414 315.6975 
z
" clip-path="url(#pe100f340fd)" style="fill: #42a5f5"/>
   </g>
   <g id="patch_7">
    <path d="M 110.030633 315.6975 
L 121.037127 315.6975 
L 121.037127 311.010817 
L 110.030633 311.010817 
z
" clip-path="url(#pe100f340fd)" style="fill: #42a5f5"/>
   </g>
   <g id="patch_8">
    <path d="M 121.037127 315.6975 
L 132.04362 315.6975 
L 132.04362 282.89072 
L 121.037127 282.89072 
z
" clip-path="url(#pe100f340fd)" style="fill: #42a5f5"/>
   </g>
   <g id="patch_9">
    <path d="M 132.04362 315.6975 
L 143.050114 315.6975 
L 143.050114 301.637452 
L 132.04362 301.637452 
z
" clip-path="url(#pe100f340fd)" style="fill: #42a5f5"/>
   </g>
   <g id="patch_10">
    <path d="M 143.050114 315.6975 
L 154.056607 315.6975 
L 154.056607 292.264086 
L 143.050114 292.264086 
z
" clip-path="url(#pe100f340fd)" style="fill: #42a5f5"/>
   </g>
   <g id="patch_11">
    <path d="M 154.056607 315.6975 
L 165.063101 315.6975 
L 165.063101 296.950769 
L 154.056607 296.950769 
z
" clip-path="url(#pe100f340fd)" style="fill: #42a5f5"/>
   </g>
   <g id="patch_12">
    <path d="M 165.063101 315.6975 
L 176.069594 315.6975 
L 176.069594 311.010817 
L 165.063101 311.010817 
z
" clip-path="url(#pe100f340fd)" style="fill: #42a5f5"/>
   </g>
   <g id="patch_13">
    <path d="M 176.069594 315.6975 
L 187.076088 315.6975 
L 187.076088 287.577403 
L 176.069594 287.577403 
z
" clip-path="url(#pe100f340fd)" style="fill: #42a5f5"/>
   </g>
   <g id="patch_14">
    <path d="M 187.076088 315.6975 
L 198.082581 315.6975 
L 198.082581 301.637452 
L 187.076088 301.637452 
z
" clip-path="url(#pe100f340fd)" style="fill: #42a5f5"/>
   </g>
   <g id="patch_15">
    <path d="M 198.082581 315.6975 
L 209.089075 315.6975 
L 209.089075 301.637452 
L 198.082581 301.637452 
z
" clip-path="url(#pe100f340fd)" style="fill: #42a5f5"/>
   </g>
   <g id="patch_16">
    <path d="M 209.089075 315.6975 
L 220.095568 315.6975 
L 220.095568 268.830672 
L 209.089075 268.830672 
z
" clip-path="url(#pe100f340fd)" style="fill: #42a5f5"/>
   </g>
   <g id="patch_17">
    <path d="M 220.095568 315.6975 
L 231.102062 315.6975 
L 231.102062 287.577403 
L 220.095568 287.577403 
z
" clip-path="url(#pe100f340fd)" style="fill: #42a5f5"/>
   </g>
   <g id="patch_18">
    <path d="M 231.102062 315.6975 
L 242.108555 315.6975 
L 242.108555 282.89072 
L 231.102062 282.89072 
z
" clip-path="url(#pe100f340fd)" style="fill: #42a5f5"/>
   </g>
   <g id="patch_19">
    <path d="M 242.108555 315.6975 
L 253.115049 315.6975 
L 253.115049 268.830672 
L 242.108555 268.830672 
z
" clip-path="url(#pe100f340fd)" style="fill: #42a5f5"/>
   </g>
   <g id="patch_20">
    <path d="M 253.115049 315.6975 
L 264.121542 315.6975 
L 264.121542 278.204038 
L 253.115049 278.204038 
z
" clip-path="url(#pe100f340fd)" style="fill: #42a5f5"/>
   </g>
   <g id="patch_21">
    <path d="M 264.121542 315.6975 
L 275.128036 315.6975 
L 275.128036 254.770623 
L 264.121542 254.770623 
z
" clip-path="url(#pe100f340fd)" style="fill: #42a5f5"/>
   </g>
   <g id="patch_22">
    <path d="M 275.128036 315.6975 
L 286.134529 315.6975 
L 286.134529 268.830672 
L 275.128036 268.830672 
z
" clip-path="url(#pe100f340fd)" style="fill: #42a5f5"/>
   </g>
   <g id="patch_23">
    <path d="M 286.134529 315.6975 
L 297.141023 315.6975 
L 297.141023 221.963844 
L 286.134529 221.963844 
z
" clip-path="url(#pe100f340fd)" style="fill: #42a5f5"/>
   </g>
   <g id="patch_24">
    <path d="M 297.141023 315.6975 
L 308.147516 315.6975 
L 308.147516 240.710575 
L 297.141023 240.710575 
z
" clip-path="url(#pe100f340fd)" style="fill: #42a5f5"/>
   </g>
   <g id="patch_25">
    <path d="M 308.147516 315.6975 
L 319.15401 315.6975 
L 319.15401 217.277161 
L 308.147516 217.277161 
z
" clip-path="url(#pe100f340fd)" style="fill: #42a5f5"/>
   </g>
   <g id="patch_26">
    <path d="M 319.15401 315.6975 
L 330.160503 315.6975 
L 330.160503 203.217113 
L 319.15401 203.217113 
z
" clip-path="url(#pe100f340fd)" style="fill: #42a5f5"/>
   </g>
   <g id="patch_27">
    <path d="M 330.160503 315.6975 
L 341.166997 315.6975 
L 341.166997 193.843747 
L 330.160503 193.843747 
z
" clip-path="url(#pe100f340fd)" style="fill: #42a5f5"/>
   </g>
   <g id="patch_28">
    <path d="M 341.166997 315.6975 
L 352.17349 315.6975 
L 352.17349 132.91687 
L 341.166997 132.91687 
z
" clip-path="url(#pe100f340fd)" style="fill: #42a5f5"/>
   </g>
   <g id="patch_29">
    <path d="M 352.17349 315.6975 
L 363.179984 315.6975 
L 363.179984 151.663602 
L 352.17349 151.663602 
z
" clip-path="url(#pe100f340fd)" style="fill: #42a5f5"/>
   </g>
   <g id="patch_30">
    <path d="M 363.179984 315.6975 
L 374.186477 315.6975 
L 374.186477 137.603553 
L 363.179984 137.603553 
z
" clip-path="url(#pe100f340fd)" style="fill: #42a5f5"/>
   </g>
   <g id="patch_31">
    <path d="M 374.186477 315.6975 
L 385.192971 315.6975 
L 385.192971 151.663602 
L 374.186477 151.663602 
z
" clip-path="url(#pe100f340fd)" style="fill: #42a5f5"/>
   </g>
   <g id="patch_32">
    <path d="M 385.192971 315.6975 
L 396.199464 315.6975 
L 396.199464 165.72365 
L 385.192971 165.72365 
z
" clip-path="url(#pe100f340fd)" style="fill: #42a5f5"/>
   </g>
   <g id="patch_33">
    <path d="M 396.199464 315.6975 
L 407.205958 315.6975 
L 407.205958 137.603553 
L 396.199464 137.603553 
z
" clip-path="url(#pe100f340fd)" style="fill: #42a5f5"/>
   </g>
   <g id="patch_34">
    <path d="M 407.205958 315.6975 
L 418.212451 315.6975 
L 418.212451 231.337209 
L 407.205958 231.337209 
z
" clip-path="url(#pe100f340fd)" style="fill: #42a5f5"/>
   </g>
   <g id="patch_35">
    <path d="M 418.212451 315.6975 
L 429.218945 315.6975 
L 429.218945 245.397258 
L 418.212451 245.397258 
z
" clip-path="url(#pe100f340fd)" style="fill: #42a5f5"/>
   </g>
   <g id="patch_36">
    <path d="M 429.218945 315.6975 
L 440.225438 315.6975 
L 440.225438 268.830672 
L 429.218945 268.830672 
z
" clip-path="url(#pe100f340fd)" style="fill: #42a5f5"/>
   </g>
   <g id="patch_37">
    <path d="M 440.225438 315.6975 
L 451.231932 315.6975 
L 451.231932 259.457306 
L 440.225438 259.457306 
z
" clip-path="url(#pe100f340fd)" style="fill: #42a5f5"/>
   </g>
   <g id="patch_38">
    <path d="M 451.231932 315.6975 
L 462.238425 315.6975 
L 462.238425 296.950769 
L 451.231932 296.950769 
z
" clip-path="url(#pe100f340fd)" style="fill: #42a5f5"/>
   </g>
   <g id="patch_39">
    <path d="M 462.238425 315.6975 
L 473.244919 315.6975 
L 473.244919 292.264086 
L 462.238425 292.264086 
z
" clip-path="url(#pe100f340fd)" style="fill: #42a5f5"/>
   </g>
   <g id="patch_40">
    <path d="M 473.244919 315.6975 
L 484.251412 315.6975 
L 484.251412 311.010817 
L 473.244919 311.010817 
z
" clip-path="url(#pe100f340fd)" style="fill: #42a5f5"/>
   </g>
   <g id="patch_41">
    <path d="M 484.251412 315.6975 
L 495.257906 315.6975 
L 495.257906 306.324134 
L 484.251412 306.324134 
z
" clip-path="url(#pe100f340fd)" style="fill: #42a5f5"/>
   </g>
   <g id="patch_42">
    <path d="M 495.257906 315.6975 
L 506.264399 315.6975 
L 506.264399 311.010817 
L 495.257906 311.010817 
z
" clip-path="url(#pe100f340fd)" style="fill: #42a5f5"/>
   </g>
   <g id="patch_43">
    <path d="M 506.264399 315.6975 
L 517.270893 315.6975 
L 517.270893 311.010817 
L 506.264399 311.010817 
z
" clip-path="url(#pe100f340fd)" style="fill: #42a5f5"/>
   </g>
   <g id="patch_44">
    <path d="M 517.270893 315.6975 
L 528.277386 315.6975 
L 528.277386 315.6975 
L 517.270893 315.6975 
z
" clip-path="url(#pe100f340fd)" style="fill: #42a5f5"/>
   </g>
   <g id="patch_45">
    <path d="M 528.277386 315.6975 
L 539.28388 315.6975 
L 539.28388 311.010817 
L 528.277386 311.010817 
z
" clip-path="url(#pe100f340fd)" style="fill: #42a5f5"/>
   </g>
   <g id="patch_46">
    <path d="M 539.28388 315.6975 
L 550.290373 315.6975 
L 550.290373 315.6975 
L 539.28388 315.6975 
z
" clip-path="url(#pe100f340fd)" style="fill: #42a5f5"/>
   </g>
   <g id="patch_47">
    <path d="M 550.290373 315.6975 
L 561.296867 315.6975 
L 561.296867 311.010817 
L 550.290373 311.010817 
z
" clip-path="url(#pe100f340fd)" style="fill: #42a5f5"/>
   </g>
   <g id="patch_48">
    <path d="M 561.296867 315.6975 
L 572.30336 315.6975 
L 572.30336 315.6975 
L 561.296867 315.6975 
z
" clip-path="url(#pe100f340fd)" style="fill: #42a5f5"/>
   </g>
   <g id="patch_49">
    <path d="M 572.30336 315.6975 
L 583.309854 315.6975 
L 583.309854 315.6975 
L 572.30336 315.6975 
z
" clip-path="url(#pe100f340fd)" style="fill: #42a5f5"/>
   </g>
   <g id="patch_50">
    <path d="M 583.309854 315.6975 
L 594.316347 315.6975 
L 594.316347 315.6975 
L 583.309854 315.6975 
z
" clip-path="url(#pe100f340fd)" style="fill: #42a5f5"/>
   </g>
   <g id="patch_51">
    <path d="M 594.316347 315.6975 
L 605.322841 315.6975 
L 605.322841 311.010817 
L 594.316347 311.010817 
z
" clip-path="url(#pe100f340fd)" style="fill: #42a5f5"/>
   </g>
   <g id="patch_52">
    <path d="M 66.004659 311.010817 
L 77.011153 311.010817 
L 77.011153 311.010817 
L 66.004659 311.010817 
z
" clip-path="url(#pe100f340fd)" style="fill: #1e88e5"/>
   </g>
   <g id="patch_53">
    <path d="M 77.011153 301.637452 
L 88.017646 301.637452 
L 88.017646 296.950769 
L 77.011153 296.950769 
z
" clip-path="url(#pe100f340fd)" style="fill: #1e88e5"/>
   </g>
   <g id="patch_54">
    <path d="M 88.017646 315.6975 
L 99.02414 315.6975 
L 99.02414 315.6975 
L 88.017646 315.6975 
z
" clip-path="url(#pe100f340fd)" style="fill: #1e88e5"/>
   </g>
   <g id="patch_55">
    <path d="M 99.02414 315.6975 
L 110.030633 315.6975 
L 110.030633 315.6975 
L 99.02414 315.6975 
z
" clip-path="url(#pe100f340fd)" style="fill: #1e88e5"/>
   </g>
   <g id="patch_56">
    <path d="M 110.030633 311.010817 
L 121.037127 311.010817 
L 121.037127 311.010817 
L 110.030633 311.010817 
z
" clip-path="url(#pe100f340fd)" style="fill: #1e88e5"/>
   </g>
   <g id="patch_57">
    <path d="M 121.037127 282.89072 
L 132.04362 282.89072 
L 132.04362 282.89072 
L 121.037127 282.89072 
z
" clip-path="url(#pe100f340fd)" style="fill: #1e88e5"/>
   </g>
   <g id="patch_58">
    <path d="M 132.04362 301.637452 
L 143.050114 301.637452 
L 143.050114 301.637452 
L 132.04362 301.637452 
z
" clip-path="url(#pe100f340fd)" style="fill: #1e88e5"/>
   </g>
   <g id="patch_59">
    <path d="M 143.050114 292.264086 
L 154.056607 292.264086 
L 154.056607 282.89072 
L 143.050114 282.89072 
z
" clip-path="url(#pe100f340fd)" style="fill: #1e88e5"/>
   </g>
   <g id="patch_60">
    <path d="M 154.056607 296.950769 
L 165.063101 296.950769 
L 165.063101 287.577403 
L 154.056607 287.577403 
z
" clip-path="url(#pe100f340fd)" style="fill: #1e88e5"/>
   </g>
   <g id="patch_61">
    <path d="M 165.063101 311.010817 
L 176.069594 311.010817 
L 176.069594 311.010817 
L 165.063101 311.010817 
z
" clip-path="url(#pe100f340fd)" style="fill: #1e88e5"/>
   </g>
   <g id="patch_62">
    <path d="M 176.069594 287.577403 
L 187.076088 287.577403 
L 187.076088 273.517355 
L 176.069594 273.517355 
z
" clip-path="url(#pe100f340fd)" style="fill: #1e88e5"/>
   </g>
   <g id="patch_63">
    <path d="M 187.076088 301.637452 
L 198.082581 301.637452 
L 198.082581 301.637452 
L 187.076088 301.637452 
z
" clip-path="url(#pe100f340fd)" style="fill: #1e88e5"/>
   </g>
   <g id="patch_64">
    <path d="M 198.082581 301.637452 
L 209.089075 301.637452 
L 209.089075 292.264086 
L 198.082581 292.264086 
z
" clip-path="url(#pe100f340fd)" style="fill: #1e88e5"/>
   </g>
   <g id="patch_65">
    <path d="M 209.089075 268.830672 
L 220.095568 268.830672 
L 220.095568 268.830672 
L 209.089075 268.830672 
z
" clip-path="url(#pe100f340fd)" style="fill: #1e88e5"/>
   </g>
   <g id="patch_66">
    <path d="M 220.095568 287.577403 
L 231.102062 287.577403 
L 231.102062 287.577403 
L 220.095568 287.577403 
z
" clip-path="url(#pe100f340fd)" style="fill: #1e88e5"/>
   </g>
   <g id="patch_67">
    <path d="M 231.102062 282.89072 
L 242.108555 282.89072 
L 242.108555 278.204038 
L 231.102062 278.204038 
z
" clip-path="url(#pe100f340fd)" style="fill: #1e88e5"/>
   </g>
   <g id="patch_68">
    <path d="M 242.108555 268.830672 
L 253.115049 268.830672 
L 253.115049 264.143989 
L 242.108555 264.143989 
z
" clip-path="url(#pe100f340fd)" style="fill: #1e88e5"/>
   </g>
   <g id="patch_69">
    <path d="M 253.115049 278.204038 
L 264.121542 278.204038 
L 264.121542 264.143989 
L 253.115049 264.143989 
z
" clip-path="url(#pe100f340fd)" style="fill: #1e88e5"/>
   </g>
   <g id="patch_70">
    <path d="M 264.121542 254.770623 
L 275.128036 254.770623 
L 275.128036 240.710575 
L 264.121542 240.710575 
z
" clip-path="url(#pe100f340fd)" style="fill: #1e88e5"/>
   </g>
   <g id="patch_71">
    <path d="M 275.128036 268.830672 
L 286.134529 268.830672 
L 286.134529 268.830672 
L 275.128036 268.830672 
z
" clip-path="url(#pe100f340fd)" style="fill: #1e88e5"/>
   </g>
   <g id="patch_72">
    <path d="M 286.134529 221.963844 
L 297.141023 221.963844 
L 297.141023 212.590478 
L 286.134529 212.590478 
z
" clip-path="url(#pe100f340fd)" style="fill: #1e88e5"/>
   </g>
   <g id="patch_73">
    <path d="M 297.141023 240.710575 
L 308.147516 240.710575 
L 308.147516 226.650527 
L 297.141023 226.650527 
z
" clip-path="url(#pe100f340fd)" style="fill: #1e88e5"/>
   </g>
   <g id="patch_74">
    <path d="M 308.147516 217.277161 
L 319.15401 217.277161 
L 319.15401 193.843747 
L 308.147516 193.843747 
z
" clip-path="url(#pe100f340fd)" style="fill: #1e88e5"/>
   </g>
   <g id="patch_75">
    <path d="M 319.15401 203.217113 
L 330.160503 203.217113 
L 330.160503 198.53043 
L 319.15401 198.53043 
z
" clip-path="url(#pe100f340fd)" style="fill: #1e88e5"/>
   </g>
   <g id="patch_76">
    <path d="M 330.160503 193.843747 
L 341.166997 193.843747 
L 341.166997 179.783699 
L 330.160503 179.783699 
z
" clip-path="url(#pe100f340fd)" style="fill: #1e88e5"/>
   </g>
   <g id="patch_77">
    <path d="M 341.166997 132.91687 
L 352.17349 132.91687 
L 352.17349 86.050042 
L 341.166997 86.050042 
z
" clip-path="url(#pe100f340fd)" style="fill: #1e88e5"/>
   </g>
   <g id="patch_78">
    <path d="M 352.17349 151.663602 
L 363.179984 151.663602 
L 363.179984 118.856822 
L 352.17349 118.856822 
z
" clip-path="url(#pe100f340fd)" style="fill: #1e88e5"/>
   </g>
   <g id="patch_79">
    <path d="M 363.179984 137.603553 
L 374.186477 137.603553 
L 374.186477 86.050042 
L 363.179984 86.050042 
z
" clip-path="url(#pe100f340fd)" style="fill: #1e88e5"/>
   </g>
   <g id="patch_80">
    <path d="M 374.186477 151.663602 
L 385.192971 151.663602 
L 385.192971 95.423408 
L 374.186477 95.423408 
z
" clip-path="url(#pe100f340fd)" style="fill: #1e88e5"/>
   </g>
   <g id="patch_81">
    <path d="M 385.192971 165.72365 
L 396.199464 165.72365 
L 396.199464 114.170139 
L 385.192971 114.170139 
z
" clip-path="url(#pe100f340fd)" style="fill: #1e88e5"/>
   </g>
   <g id="patch_82">
    <path d="M 396.199464 137.603553 
L 407.205958 137.603553 
L 407.205958 109.483456 
L 396.199464 109.483456 
z
" clip-path="url(#pe100f340fd)" style="fill: #1e88e5"/>
   </g>
   <g id="patch_83">
    <path d="M 407.205958 231.337209 
L 418.212451 231.337209 
L 418.212451 198.53043 
L 407.205958 198.53043 
z
" clip-path="url(#pe100f340fd)" style="fill: #1e88e5"/>
   </g>
   <g id="patch_84">
    <path d="M 418.212451 245.397258 
L 429.218945 245.397258 
L 429.218945 226.650527 
L 418.212451 226.650527 
z
" clip-path="url(#pe100f340fd)" style="fill: #1e88e5"/>
   </g>
   <g id="patch_85">
    <path d="M 429.218945 268.830672 
L 440.225438 268.830672 
L 440.225438 254.770623 
L 429.218945 254.770623 
z
" clip-path="url(#pe100f340fd)" style="fill: #1e88e5"/>
   </g>
   <g id="patch_86">
    <path d="M 440.225438 259.457306 
L 451.231932 259.457306 
L 451.231932 254.770623 
L 440.225438 254.770623 
z
" clip-path="url(#pe100f340fd)" style="fill: #1e88e5"/>
   </g>
   <g id="patch_87">
    <path d="M 451.231932 296.950769 
L 462.238425 296.950769 
L 462.238425 296.950769 
L 451.231932 296.950769 
z
" clip-path="url(#pe100f340fd)" style="fill: #1e88e5"/>
   </g>
   <g id="patch_88">
    <path d="M 462.238425 292.264086 
L 473.244919 292.264086 
L 473.244919 282.89072 
L 462.238425 282.89072 
z
" clip-path="url(#pe100f340fd)" style="fill: #1e88e5"/>
   </g>
   <g id="patch_89">
    <path d="M 473.244919 311.010817 
L 484.251412 311.010817 
L 484.251412 311.010817 
L 473.244919 311.010817 
z
" clip-path="url(#pe100f340fd)" style="fill: #1e88e5"/>
   </g>
   <g id="patch_90">
    <path d="M 484.251412 306.324134 
L 495.257906 306.324134 
L 495.257906 306.324134 
L 484.251412 306.324134 
z
" clip-path="url(#pe100f340fd)" style="fill: #1e88e5"/>
   </g>
   <g id="patch_91">
    <path d="M 495.257906 311.010817 
L 506.264399 311.010817 
L 506.264399 311.010817 
L 495.257906 311.010817 
z
" clip-path="url(#pe100f340fd)" style="fill: #1e88e5"/>
   </g>
   <g id="patch_92">
    <path d="M 506.264399 311.010817 
L 517.270893 311.010817 
L 517.270893 311.010817 
L 506.264399 311.010817 
z
" clip-path="url(#pe100f340fd)" style="fill: #1e88e5"/>
   </g>
   <g id="patch_93">
    <path d="M 517.270893 315.6975 
L 528.277386 315.6975 
L 528.277386 315.6975 
L 517.270893 315.6975 
z
" clip-path="url(#pe100f340fd)" style="fill: #1e88e5"/>
   </g>
   <g id="patch_94">
    <path d="M 528.277386 311.010817 
L 539.28388 311.010817 
L 539.28388 311.010817 
L 528.277386 311.010817 
z
" clip-path="url(#pe100f340fd)" style="fill: #1e88e5"/>
   </g>
   <g id="patch_95">
    <path d="M 539.28388 315.6975 
L 550.290373 315.6975 
L 550.290373 315.6975 
L 539.28388 315.6975 
z
" clip-path="url(#pe100f340fd)" style="fill: #1e88e5"/>
   </g>
   <g id="patch_96">
    <path d="M 550.290373 311.010817 
L 561.296867 311.010817 
L 561.296867 311.010817 
L 550.290373 311.010817 
z
" clip-path="url(#pe100f340fd)" style="fill: #1e88e5"/>
   </g>
   <g id="patch_97">
    <path d="M 561.296867 315.6975 
L 572.30336 315.6975 
L 572.30336 315.6975 
L 561.296867 315.6975 
z
" clip-path="url(#pe100f340fd)" style="fill: #1e88e5"/>
   </g>
   <g id="patch_98">
    <path d="M 572.30336 315.6975 
L 583.309854 315.6975 
L 583.309854 315.6975 
L 572.30336 315.6975 
z
" clip-path="url(#pe100f340fd)" style="fill: #1e88e5"/>
   </g>
   <g id="patch_99">
    <path d="M 583.309854 315.6975 
L 594.316347 315.6975 
L 594.316347 315.6975 
L 583.309854 315.6975 
z
" clip-path="url(#pe100f340fd)" style="fill: #1e88e5"/>
   </g>
   <g id="patch_100">
    <path d="M 594.316347 311.010817 
L 605.322841 311.010817 
L 605.322841 311.010817 
L 594.316347 311.010817 
z
" clip-path="url(#pe100f340fd)" style="fill: #1e88e5"/>
   </g>
   <g id="patch_101">
    <path d="M 66.004659 311.010817 
L 77.011153 311.010817 
L 77.011153 306.324134 
L 66.004659 306.324134 
z
" clip-path="url(#pe100f340fd)" style="fill: #0d47a1"/>
   </g>
   <g id="patch_102">
    <path d="M 77.011153 296.950769 
L 88.017646 296.950769 
L 88.017646 296.950769 
L 77.011153 296.950769 
z
" clip-path="url(#pe100f340fd)" style="fill: #0d47a1"/>
   </g>
   <g id="patch_103">
    <path d="M 88.017646 315.6975 
L 99.02414 315.6975 
L 99.02414 315.6975 
L 88.017646 315.6975 
z
" clip-path="url(#pe100f340fd)" style="fill: #0d47a1"/>
   </g>
   <g id="patch_104">
    <path d="M 99.02414 315.6975 
L 110.030633 315.6975 
L 110.030633 311.010817 
L 99.02414 311.010817 
z
" clip-path="url(#pe100f340fd)" style="fill: #0d47a1"/>
   </g>
   <g id="patch_105">
    <path d="M 110.030633 311.010817 
L 121.037127 311.010817 
L 121.037127 311.010817 
L 110.030633 311.010817 
z
" clip-path="url(#pe100f340fd)" style="fill: #0d47a1"/>
   </g>
   <g id="patch_106">
    <path d="M 121.037127 282.89072 
L 132.04362 282.89072 
L 132.04362 268.830672 
L 121.037127 268.830672 
z
" clip-path="url(#pe100f340fd)" style="fill: #0d47a1"/>
   </g>
   <g id="patch_107">
    <path d="M 132.04362 301.637452 
L 143.050114 301.637452 
L 143.050114 301.637452 
L 132.04362 301.637452 
z
" clip-path="url(#pe100f340fd)" style="fill: #0d47a1"/>
   </g>
   <g id="patch_108">
    <path d="M 143.050114 282.89072 
L 154.056607 282.89072 
L 154.056607 278.204038 
L 143.050114 278.204038 
z
" clip-path="url(#pe100f340fd)" style="fill: #0d47a1"/>
   </g>
   <g id="patch_109">
    <path d="M 154.056607 287.577403 
L 165.063101 287.577403 
L 165.063101 282.89072 
L 154.056607 282.89072 
z
" clip-path="url(#pe100f340fd)" style="fill: #0d47a1"/>
   </g>
   <g id="patch_110">
    <path d="M 165.063101 311.010817 
L 176.069594 311.010817 
L 176.069594 311.010817 
L 165.063101 311.010817 
z
" clip-path="url(#pe100f340fd)" style="fill: #0d47a1"/>
   </g>
   <g id="patch_111">
    <path d="M 176.069594 273.517355 
L 187.076088 273.517355 
L 187.076088 268.830672 
L 176.069594 268.830672 
z
" clip-path="url(#pe100f340fd)" style="fill: #0d47a1"/>
   </g>
   <g id="patch_112">
    <path d="M 187.076088 301.637452 
L 198.082581 301.637452 
L 198.082581 301.637452 
L 187.076088 301.637452 
z
" clip-path="url(#pe100f340fd)" style="fill: #0d47a1"/>
   </g>
   <g id="patch_113">
    <path d="M 198.082581 292.264086 
L 209.089075 292.264086 
L 209.089075 292.264086 
L 198.082581 292.264086 
z
" clip-path="url(#pe100f340fd)" style="fill: #0d47a1"/>
   </g>
   <g id="patch_114">
    <path d="M 209.089075 268.830672 
L 220.095568 268.830672 
L 220.095568 264.143989 
L 209.089075 264.143989 
z
" clip-path="url(#pe100f340fd)" style="fill: #0d47a1"/>
   </g>
   <g id="patch_115">
    <path d="M 220.095568 287.577403 
L 231.102062 287.577403 
L 231.102062 282.89072 
L 220.095568 282.89072 
z
" clip-path="url(#pe100f340fd)" style="fill: #0d47a1"/>
   </g>
   <g id="patch_116">
    <path d="M 231.102062 278.204038 
L 242.108555 278.204038 
L 242.108555 273.517355 
L 231.102062 273.517355 
z
" clip-path="url(#pe100f340fd)" style="fill: #0d47a1"/>
   </g>
   <g id="patch_117">
    <path d="M 242.108555 264.143989 
L 253.115049 264.143989 
L 253.115049 254.770623 
L 242.108555 254.770623 
z
" clip-path="url(#pe100f340fd)" style="fill: #0d47a1"/>
   </g>
   <g id="patch_118">
    <path d="M 253.115049 264.143989 
L 264.121542 264.143989 
L 264.121542 264.143989 
L 253.115049 264.143989 
z
" clip-path="url(#pe100f340fd)" style="fill: #0d47a1"/>
   </g>
   <g id="patch_119">
    <path d="M 264.121542 240.710575 
L 275.128036 240.710575 
L 275.128036 217.277161 
L 264.121542 217.277161 
z
" clip-path="url(#pe100f340fd)" style="fill: #0d47a1"/>
   </g>
   <g id="patch_120">
    <path d="M 275.128036 268.830672 
L 286.134529 268.830672 
L 286.134529 250.083941 
L 275.128036 250.083941 
z
" clip-path="url(#pe100f340fd)" style="fill: #0d47a1"/>
   </g>
   <g id="patch_121">
    <path d="M 286.134529 212.590478 
L 297.141023 212.590478 
L 297.141023 184.470381 
L 286.134529 184.470381 
z
" clip-path="url(#pe100f340fd)" style="fill: #0d47a1"/>
   </g>
   <g id="patch_122">
    <path d="M 297.141023 226.650527 
L 308.147516 226.650527 
L 308.147516 212.590478 
L 297.141023 212.590478 
z
" clip-path="url(#pe100f340fd)" style="fill: #0d47a1"/>
   </g>
   <g id="patch_123">
    <path d="M 308.147516 193.843747 
L 319.15401 193.843747 
L 319.15401 175.097016 
L 308.147516 175.097016 
z
" clip-path="url(#pe100f340fd)" style="fill: #0d47a1"/>
   </g>
   <g id="patch_124">
    <path d="M 319.15401 198.53043 
L 330.160503 198.53043 
L 330.160503 179.783699 
L 319.15401 179.783699 
z
" clip-path="url(#pe100f340fd)" style="fill: #0d47a1"/>
   </g>
   <g id="patch_125">
    <path d="M 330.160503 179.783699 
L 341.166997 179.783699 
L 341.166997 151.663602 
L 330.160503 151.663602 
z
" clip-path="url(#pe100f340fd)" style="fill: #0d47a1"/>
   </g>
   <g id="patch_126">
    <path d="M 341.166997 86.050042 
L 352.17349 86.050042 
L 352.17349 57.929946 
L 341.166997 57.929946 
z
" clip-path="url(#pe100f340fd)" style="fill: #0d47a1"/>
   </g>
   <g id="patch_127">
    <path d="M 352.17349 118.856822 
L 363.179984 118.856822 
L 363.179984 67.303311 
L 352.17349 67.303311 
z
" clip-path="url(#pe100f340fd)" style="fill: #0d47a1"/>
   </g>
   <g id="patch_128">
    <path d="M 363.179984 86.050042 
L 374.186477 86.050042 
L 374.186477 39.183214 
L 363.179984 39.183214 
z
" clip-path="url(#pe100f340fd)" style="fill: #0d47a1"/>
   </g>
   <g id="patch_129">
    <path d="M 374.186477 95.423408 
L 385.192971 95.423408 
L 385.192971 57.929946 
L 374.186477 57.929946 
z
" clip-path="url(#pe100f340fd)" style="fill: #0d47a1"/>
   </g>
   <g id="patch_130">
    <path d="M 385.192971 114.170139 
L 396.199464 114.170139 
L 396.199464 76.676677 
L 385.192971 76.676677 
z
" clip-path="url(#pe100f340fd)" style="fill: #0d47a1"/>
   </g>
   <g id="patch_131">
    <path d="M 396.199464 109.483456 
L 407.205958 109.483456 
L 407.205958 76.676677 
L 396.199464 76.676677 
z
" clip-path="url(#pe100f340fd)" style="fill: #0d47a1"/>
   </g>
   <g id="patch_132">
    <path d="M 407.205958 198.53043 
L 418.212451 198.53043 
L 418.212451 179.783699 
L 407.205958 179.783699 
z
" clip-path="url(#pe100f340fd)" style="fill: #0d47a1"/>
   </g>
   <g id="patch_133">
    <path d="M 418.212451 226.650527 
L 429.218945 226.650527 
L 429.218945 221.963844 
L 418.212451 221.963844 
z
" clip-path="url(#pe100f340fd)" style="fill: #0d47a1"/>
   </g>
   <g id="patch_134">
    <path d="M 429.218945 254.770623 
L 440.225438 254.770623 
L 440.225438 245.397258 
L 429.218945 245.397258 
z
" clip-path="url(#pe100f340fd)" style="fill: #0d47a1"/>
   </g>
   <g id="patch_135">
    <path d="M 440.225438 254.770623 
L 451.231932 254.770623 
L 451.231932 245.397258 
L 440.225438 245.397258 
z
" clip-path="url(#pe100f340fd)" style="fill: #0d47a1"/>
   </g>
   <g id="patch_136">
    <path d="M 451.231932 296.950769 
L 462.238425 296.950769 
L 462.238425 287.577403 
L 451.231932 287.577403 
z
" clip-path="url(#pe100f340fd)" style="fill: #0d47a1"/>
   </g>
   <g id="patch_137">
    <path d="M 462.238425 282.89072 
L 473.244919 282.89072 
L 473.244919 278.204038 
L 462.238425 278.204038 
z
" clip-path="url(#pe100f340fd)" style="fill: #0d47a1"/>
   </g>
   <g id="patch_138">
    <path d="M 473.244919 311.010817 
L 484.251412 311.010817 
L 484.251412 311.010817 
L 473.244919 311.010817 
z
" clip-path="url(#pe100f340fd)" style="fill: #0d47a1"/>
   </g>
   <g id="patch_139">
    <path d="M 484.251412 306.324134 
L 495.257906 306.324134 
L 495.257906 301.637452 
L 484.251412 301.637452 
z
" clip-path="url(#pe100f340fd)" style="fill: #0d47a1"/>
   </g>
   <g id="patch_140">
    <path d="M 495.257906 311.010817 
L 506.264399 311.010817 
L 506.264399 311.010817 
L 495.257906 311.010817 
z
" clip-path="url(#pe100f340fd)" style="fill: #0d47a1"/>
   </g>
   <g id="patch_141">
    <path d="M 506.264399 311.010817 
L 517.270893 311.010817 
L 517.270893 311.010817 
L 506.264399 311.010817 
z
" clip-path="url(#pe100f340fd)" style="fill: #0d47a1"/>
   </g>
   <g id="patch_142">
    <path d="M 517.270893 315.6975 
L 528.277386 315.6975 
L 528.277386 315.6975 
L 517.270893 315.6975 
z
" clip-path="url(#pe100f340fd)" style="fill: #0d47a1"/>
   </g>
   <g id="patch_143">
    <path d="M 528.277386 311.010817 
L 539.28388 311.010817 
L 539.28388 311.010817 
L 528.277386 311.010817 
z
" clip-path="url(#pe100f340fd)" style="fill: #0d47a1"/>
   </g>
   <g id="patch_144">
    <path d="M 539.28388 315.6975 
L 550.290373 315.6975 
L 550.290373 315.6975 
L 539.28388 315.6975 
z
" clip-path="url(#pe100f340fd)" style="fill: #0d47a1"/>
   </g>
   <g id="patch_145">
    <path d="M 550.290373 311.010817 
L 561.296867 311.010817 
L 561.296867 311.010817 
L 550.290373 311.010817 
z
" clip-path="url(#pe100f340fd)" style="fill: #0d47a1"/>
   </g>
   <g id="patch_146">
    <path d="M 561.296867 315.6975 
L 572.30336 315.6975 
L 572.30336 315.6975 
L 561.296867 315.6975 
z
" clip-path="url(#pe100f340fd)" style="fill: #0d47a1"/>
   </g>
   <g id="patch_147">
    <path d="M 572.30336 315.6975 
L 583.309854 315.6975 
L 583.309854 315.6975 
L 572.30336 315.6975 
z
" clip-path="url(#pe100f340fd)" style="fill: #0d47a1"/>
   </g>
   <g id="patch_148">
    <path d="M 583.309854 315.6975 
L 594.316347 315.6975 
L 594.316347 315.6975 
L 583.309854 315.6975 
z
" clip-path="url(#pe100f340fd)" style="fill: #0d47a1"/>
   </g>
   <g id="patch_149">
    <path d="M 594.316347 311.010817 
L 605.322841 311.010817 
L 605.322841 311.010817 
L 594.316347 311.010817 
z
" clip-path="url(#pe100f340fd)" style="fill: #0d47a1"/>
   </g>
   <g id="patch_150">
    <path d="M 39.03875 315.6975 
L 39.03875 25.3575 
" style="fill: none"/>
   </g>
   <g id="patch_151">
    <path d="M 39.03875 315.6975 
L 632.28875 315.6975 
" style="fill: none"/>
   </g>
   <g id="text_17">
    <!-- PSNR Distribution Across Dataset Splits -->
    <g style="fill: #262626" transform="translate(155.48 19.3575) scale(0.16 -0.16)">
     <defs>
      <path id="DejaVuSans-Bold-44" d="M 1791 3756 
L 1791 909 
L 2222 909 
Q 2959 909 3348 1275 
Q 3738 1641 3738 2338 
Q 3738 3031 3350 3393 
Q 2963 3756 2222 3756 
L 1791 3756 
z
M 588 4666 
L 1856 4666 
Q 2919 4666 3439 4514 
Q 3959 4363 4331 4000 
Q 4659 3684 4818 3271 
Q 4978 2859 4978 2338 
Q 4978 1809 4818 1395 
Q 4659 981 4331 666 
Q 3956 303 3431 151 
Q 2906 0 1856 0 
L 588 0 
L 588 4666 
z
" transform="scale(0.015625)"/>
      <path id="DejaVuSans-Bold-69" d="M 538 3500 
L 1656 3500 
L 1656 0 
L 538 0 
L 538 3500 
z
M 538 4863 
L 1656 4863 
L 1656 3950 
L 538 3950 
L 538 4863 
z
" transform="scale(0.015625)"/>
      <path id="DejaVuSans-Bold-73" d="M 3272 3391 
L 3272 2541 
Q 2913 2691 2578 2766 
Q 2244 2841 1947 2841 
Q 1628 2841 1473 2761 
Q 1319 2681 1319 2516 
Q 1319 2381 1436 2309 
Q 1553 2238 1856 2203 
L 2053 2175 
Q 2913 2066 3209 1816 
Q 3506 1566 3506 1031 
Q 3506 472 3093 190 
Q 2681 -91 1863 -91 
Q 1516 -91 1145 -36 
Q 775 19 384 128 
L 384 978 
Q 719 816 1070 734 
Q 1422 653 1784 653 
Q 2113 653 2278 743 
Q 2444 834 2444 1013 
Q 2444 1163 2330 1236 
Q 2216 1309 1875 1350 
L 1678 1375 
Q 931 1469 631 1722 
Q 331 1975 331 2491 
Q 331 3047 712 3315 
Q 1094 3584 1881 3584 
Q 2191 3584 2531 3537 
Q 2872 3491 3272 3391 
z
" transform="scale(0.015625)"/>
      <path id="DejaVuSans-Bold-74" d="M 1759 4494 
L 1759 3500 
L 2913 3500 
L 2913 2700 
L 1759 2700 
L 1759 1216 
Q 1759 972 1856 886 
Q 1953 800 2241 800 
L 2816 800 
L 2816 0 
L 1856 0 
Q 1194 0 917 276 
Q 641 553 641 1216 
L 641 2700 
L 84 2700 
L 84 3500 
L 641 3500 
L 641 4494 
L 1759 4494 
z
" transform="scale(0.015625)"/>
      <path id="DejaVuSans-Bold-62" d="M 2400 722 
Q 2759 722 2948 984 
Q 3138 1247 3138 1747 
Q 3138 2247 2948 2509 
Q 2759 2772 2400 2772 
Q 2041 2772 1848 2508 
Q 1656 2244 1656 1747 
Q 1656 1250 1848 986 
Q 2041 722 2400 722 
z
M 1656 2988 
Q 1888 3294 2169 3439 
Q 2450 3584 2816 3584 
Q 3463 3584 3878 3070 
Q 4294 2556 4294 1747 
Q 4294 938 3878 423 
Q 3463 -91 2816 -91 
Q 2450 -91 2169 54 
Q 1888 200 1656 506 
L 1656 0 
L 538 0 
L 538 4863 
L 1656 4863 
L 1656 2988 
z
" transform="scale(0.015625)"/>
      <path id="DejaVuSans-Bold-6f" d="M 2203 2784 
Q 1831 2784 1636 2517 
Q 1441 2250 1441 1747 
Q 1441 1244 1636 976 
Q 1831 709 2203 709 
Q 2569 709 2762 976 
Q 2956 1244 2956 1747 
Q 2956 2250 2762 2517 
Q 2569 2784 2203 2784 
z
M 2203 3584 
Q 3106 3584 3614 3096 
Q 4122 2609 4122 1747 
Q 4122 884 3614 396 
Q 3106 -91 2203 -91 
Q 1297 -91 786 396 
Q 275 884 275 1747 
Q 275 2609 786 3096 
Q 1297 3584 2203 3584 
z
" transform="scale(0.015625)"/>
      <path id="DejaVuSans-Bold-41" d="M 3419 850 
L 1538 850 
L 1241 0 
L 31 0 
L 1759 4666 
L 3194 4666 
L 4922 0 
L 3713 0 
L 3419 850 
z
M 1838 1716 
L 3116 1716 
L 2478 3572 
L 1838 1716 
z
" transform="scale(0.015625)"/>
      <path id="DejaVuSans-Bold-61" d="M 2106 1575 
Q 1756 1575 1579 1456 
Q 1403 1338 1403 1106 
Q 1403 894 1545 773 
Q 1688 653 1941 653 
Q 2256 653 2472 879 
Q 2688 1106 2688 1447 
L 2688 1575 
L 2106 1575 
z
M 3816 1997 
L 3816 0 
L 2688 0 
L 2688 519 
Q 2463 200 2181 54 
Q 1900 -91 1497 -91 
Q 953 -91 614 226 
Q 275 544 275 1050 
Q 275 1666 698 1953 
Q 1122 2241 2028 2241 
L 2688 2241 
L 2688 2328 
Q 2688 2594 2478 2717 
Q 2269 2841 1825 2841 
Q 1466 2841 1156 2769 
Q 847 2697 581 2553 
L 581 3406 
Q 941 3494 1303 3539 
Q 1666 3584 2028 3584 
Q 2975 3584 3395 3211 
Q 3816 2838 3816 1997 
z
" transform="scale(0.015625)"/>
      <path id="DejaVuSans-Bold-70" d="M 1656 506 
L 1656 -1331 
L 538 -1331 
L 538 3500 
L 1656 3500 
L 1656 2988 
Q 1888 3294 2169 3439 
Q 2450 3584 2816 3584 
Q 3463 3584 3878 3070 
Q 4294 2556 4294 1747 
Q 4294 938 3878 423 
Q 3463 -91 2816 -91 
Q 2450 -91 2169 54 
Q 1888 200 1656 506 
z
M 2400 2772 
Q 2041 2772 1848 2508 
Q 1656 2244 1656 1747 
Q 1656 1250 1848 986 
Q 2041 722 2400 722 
Q 2759 722 2948 984 
Q 3138 1247 3138 1747 
Q 3138 2247 2948 2509 
Q 2759 2772 2400 2772 
z
" transform="scale(0.015625)"/>
      <path id="DejaVuSans-Bold-6c" d="M 538 4863 
L 1656 4863 
L 1656 0 
L 538 0 
L 538 4863 
z
" transform="scale(0.015625)"/>
     </defs>
     <use xlink:href="#DejaVuSans-Bold-50"/>
     <use xlink:href="#DejaVuSans-Bold-53" x="73.291016"/>
     <use xlink:href="#DejaVuSans-Bold-4e" x="145.3125"/>
     <use xlink:href="#DejaVuSans-Bold-52" x="229.003906"/>
     <use xlink:href="#DejaVuSans-Bold-20" x="306.005859"/>
     <use xlink:href="#DejaVuSans-Bold-44" x="340.820312"/>
     <use xlink:href="#DejaVuSans-Bold-69" x="423.828125"/>
     <use xlink:href="#DejaVuSans-Bold-73" x="458.105469"/>
     <use xlink:href="#DejaVuSans-Bold-74" x="517.626953"/>
     <use xlink:href="#DejaVuSans-Bold-72" x="565.429688"/>
     <use xlink:href="#DejaVuSans-Bold-69" x="614.746094"/>
     <use xlink:href="#DejaVuSans-Bold-62" x="649.023438"/>
     <use xlink:href="#DejaVuSans-Bold-75" x="720.605469"/>
     <use xlink:href="#DejaVuSans-Bold-74" x="791.796875"/>
     <use xlink:href="#DejaVuSans-Bold-69" x="839.599609"/>
     <use xlink:href="#DejaVuSans-Bold-6f" x="873.876953"/>
     <use xlink:href="#DejaVuSans-Bold-6e" x="942.578125"/>
     <use xlink:href="#DejaVuSans-Bold-20" x="1013.769531"/>
     <use xlink:href="#DejaVuSans-Bold-41" x="1048.583984"/>
     <use xlink:href="#DejaVuSans-Bold-63" x="1125.976562"/>
     <use xlink:href="#DejaVuSans-Bold-72" x="1185.253906"/>
     <use xlink:href="#DejaVuSans-Bold-6f" x="1234.570312"/>
     <use xlink:href="#DejaVuSans-Bold-73" x="1303.271484"/>
     <use xlink:href="#DejaVuSans-Bold-73" x="1362.792969"/>
     <use xlink:href="#DejaVuSans-Bold-20" x="1422.314453"/>
     <use xlink:href="#DejaVuSans-Bold-44" x="1457.128906"/>
     <use xlink:href="#DejaVuSans-Bold-61" x="1540.136719"/>
     <use xlink:href="#DejaVuSans-Bold-74" x="1607.617188"/>
     <use xlink:href="#DejaVuSans-Bold-61" x="1655.419922"/>
     <use xlink:href="#DejaVuSans-Bold-73" x="1722.900391"/>
     <use xlink:href="#DejaVuSans-Bold-65" x="1782.421875"/>
     <use xlink:href="#DejaVuSans-Bold-74" x="1850.244141"/>
     <use xlink:href="#DejaVuSans-Bold-20" x="1898.046875"/>
     <use xlink:href="#DejaVuSans-Bold-53" x="1932.861328"/>
     <use xlink:href="#DejaVuSans-Bold-70" x="2004.882812"/>
     <use xlink:href="#DejaVuSans-Bold-6c" x="2076.464844"/>
     <use xlink:href="#DejaVuSans-Bold-69" x="2110.742188"/>
     <use xlink:href="#DejaVuSans-Bold-74" x="2145.019531"/>
     <use xlink:href="#DejaVuSans-Bold-73" x="2192.822266"/>
    </g>
   </g>
   <g id="legend_1">
    <g id="patch_152">
     <path d="M 47.43875 87.79875 
L 145.09625 87.79875 
Q 147.49625 87.79875 147.49625 85.39875 
L 147.49625 33.7575 
Q 147.49625 31.3575 145.09625 31.3575 
L 47.43875 31.3575 
Q 45.03875 31.3575 45.03875 33.7575 
L 45.03875 85.39875 
Q 45.03875 87.79875 47.43875 87.79875 
z
" style="fill: #ffffff; opacity: 0.8; stroke: #808080; stroke-linejoin: miter"/>
    </g>
    <g id="patch_153">
     <path d="M 49.83875 45.275625 
L 73.83875 45.275625 
L 73.83875 36.875625 
L 49.83875 36.875625 
z
" style="fill: #42a5f5"/>
    </g>
    <g id="text_18">
     <!-- Train -->
     <g style="fill: #262626" transform="translate(83.43875 45.275625) scale(0.12 -0.12)">
      <defs>
       <path id="DejaVuSans-54" d="M -19 4666 
L 3928 4666 
L 3928 4134 
L 2272 4134 
L 2272 0 
L 1638 0 
L 1638 4134 
L -19 4134 
L -19 4666 
z
" transform="scale(0.015625)"/>
       <path id="DejaVuSans-72" d="M 2631 2963 
Q 2534 3019 2420 3045 
Q 2306 3072 2169 3072 
Q 1681 3072 1420 2755 
Q 1159 2438 1159 1844 
L 1159 0 
L 581 0 
L 581 3500 
L 1159 3500 
L 1159 2956 
Q 1341 3275 1631 3429 
Q 1922 3584 2338 3584 
Q 2397 3584 2469 3576 
Q 2541 3569 2628 3553 
L 2631 2963 
z
" transform="scale(0.015625)"/>
       <path id="DejaVuSans-61" d="M 2194 1759 
Q 1497 1759 1228 1600 
Q 959 1441 959 1056 
Q 959 750 1161 570 
Q 1363 391 1709 391 
Q 2188 391 2477 730 
Q 2766 1069 2766 1631 
L 2766 1759 
L 2194 1759 
z
M 3341 1997 
L 3341 0 
L 2766 0 
L 2766 531 
Q 2569 213 2275 61 
Q 1981 -91 1556 -91 
Q 1019 -91 701 211 
Q 384 513 384 1019 
Q 384 1609 779 1909 
Q 1175 2209 1959 2209 
L 2766 2209 
L 2766 2266 
Q 2766 2663 2505 2880 
Q 2244 3097 1772 3097 
Q 1472 3097 1187 3025 
Q 903 2953 641 2809 
L 641 3341 
Q 956 3463 1253 3523 
Q 1550 3584 1831 3584 
Q 2591 3584 2966 3190 
Q 3341 2797 3341 1997 
z
" transform="scale(0.015625)"/>
       <path id="DejaVuSans-69" d="M 603 3500 
L 1178 3500 
L 1178 0 
L 603 0 
L 603 3500 
z
M 603 4863 
L 1178 4863 
L 1178 4134 
L 603 4134 
L 603 4863 
z
" transform="scale(0.015625)"/>
       <path id="DejaVuSans-6e" d="M 3513 2113 
L 3513 0 
L 2938 0 
L 2938 2094 
Q 2938 2591 2744 2837 
Q 2550 3084 2163 3084 
Q 1697 3084 1428 2787 
Q 1159 2491 1159 1978 
L 1159 0 
L 581 0 
L 581 3500 
L 1159 3500 
L 1159 2956 
Q 1366 3272 1645 3428 
Q 1925 3584 2291 3584 
Q 2894 3584 3203 3211 
Q 3513 2838 3513 2113 
z
" transform="scale(0.015625)"/>
      </defs>
      <use xlink:href="#DejaVuSans-54"/>
      <use xlink:href="#DejaVuSans-72" x="46.333984"/>
      <use xlink:href="#DejaVuSans-61" x="87.447266"/>
      <use xlink:href="#DejaVuSans-69" x="148.726562"/>
      <use xlink:href="#DejaVuSans-6e" x="176.509766"/>
     </g>
    </g>
    <g id="patch_154">
     <path d="M 49.83875 62.889375 
L 73.83875 62.889375 
L 73.83875 54.489375 
L 49.83875 54.489375 
z
" style="fill: #1e88e5"/>
    </g>
    <g id="text_19">
     <!-- Validation -->
     <g style="fill: #262626" transform="translate(83.43875 62.889375) scale(0.12 -0.12)">
      <defs>
       <path id="DejaVuSans-56" d="M 1831 0 
L 50 4666 
L 709 4666 
L 2188 738 
L 3669 4666 
L 4325 4666 
L 2547 0 
L 1831 0 
z
" transform="scale(0.015625)"/>
       <path id="DejaVuSans-6c" d="M 603 4863 
L 1178 4863 
L 1178 0 
L 603 0 
L 603 4863 
z
" transform="scale(0.015625)"/>
       <path id="DejaVuSans-64" d="M 2906 2969 
L 2906 4863 
L 3481 4863 
L 3481 0 
L 2906 0 
L 2906 525 
Q 2725 213 2448 61 
Q 2172 -91 1784 -91 
Q 1150 -91 751 415 
Q 353 922 353 1747 
Q 353 2572 751 3078 
Q 1150 3584 1784 3584 
Q 2172 3584 2448 3432 
Q 2725 3281 2906 2969 
z
M 947 1747 
Q 947 1113 1208 752 
Q 1469 391 1925 391 
Q 2381 391 2643 752 
Q 2906 1113 2906 1747 
Q 2906 2381 2643 2742 
Q 2381 3103 1925 3103 
Q 1469 3103 1208 2742 
Q 947 2381 947 1747 
z
" transform="scale(0.015625)"/>
       <path id="DejaVuSans-74" d="M 1172 4494 
L 1172 3500 
L 2356 3500 
L 2356 3053 
L 1172 3053 
L 1172 1153 
Q 1172 725 1289 603 
Q 1406 481 1766 481 
L 2356 481 
L 2356 0 
L 1766 0 
Q 1100 0 847 248 
Q 594 497 594 1153 
L 594 3053 
L 172 3053 
L 172 3500 
L 594 3500 
L 594 4494 
L 1172 4494 
z
" transform="scale(0.015625)"/>
       <path id="DejaVuSans-6f" d="M 1959 3097 
Q 1497 3097 1228 2736 
Q 959 2375 959 1747 
Q 959 1119 1226 758 
Q 1494 397 1959 397 
Q 2419 397 2687 759 
Q 2956 1122 2956 1747 
Q 2956 2369 2687 2733 
Q 2419 3097 1959 3097 
z
M 1959 3584 
Q 2709 3584 3137 3096 
Q 3566 2609 3566 1747 
Q 3566 888 3137 398 
Q 2709 -91 1959 -91 
Q 1206 -91 779 398 
Q 353 888 353 1747 
Q 353 2609 779 3096 
Q 1206 3584 1959 3584 
z
" transform="scale(0.015625)"/>
      </defs>
      <use xlink:href="#DejaVuSans-56"/>
      <use xlink:href="#DejaVuSans-61" x="60.658203"/>
      <use xlink:href="#DejaVuSans-6c" x="121.9375"/>
      <use xlink:href="#DejaVuSans-69" x="149.720703"/>
      <use xlink:href="#DejaVuSans-64" x="177.503906"/>
      <use xlink:href="#DejaVuSans-61" x="240.980469"/>
      <use xlink:href="#DejaVuSans-74" x="302.259766"/>
      <use xlink:href="#DejaVuSans-69" x="341.46875"/>
      <use xlink:href="#DejaVuSans-6f" x="369.251953"/>
      <use xlink:href="#DejaVuSans-6e" x="430.433594"/>
     </g>
    </g>
    <g id="patch_155">
     <path d="M 49.83875 80.503125 
L 73.83875 80.503125 
L 73.83875 72.103125 
L 49.83875 72.103125 
z
" style="fill: #0d47a1"/>
    </g>
    <g id="text_20">
     <!-- Test -->
     <g style="fill: #262626" transform="translate(83.43875 80.503125) scale(0.12 -0.12)">
      <defs>
       <path id="DejaVuSans-65" d="M 3597 1894 
L 3597 1613 
L 953 1613 
Q 991 1019 1311 708 
Q 1631 397 2203 397 
Q 2534 397 2845 478 
Q 3156 559 3463 722 
L 3463 178 
Q 3153 47 2828 -22 
Q 2503 -91 2169 -91 
Q 1331 -91 842 396 
Q 353 884 353 1716 
Q 353 2575 817 3079 
Q 1281 3584 2069 3584 
Q 2775 3584 3186 3129 
Q 3597 2675 3597 1894 
z
M 3022 2063 
Q 3016 2534 2758 2815 
Q 2500 3097 2075 3097 
Q 1594 3097 1305 2825 
Q 1016 2553 972 2059 
L 3022 2063 
z
" transform="scale(0.015625)"/>
       <path id="DejaVuSans-73" d="M 2834 3397 
L 2834 2853 
Q 2591 2978 2328 3040 
Q 2066 3103 1784 3103 
Q 1356 3103 1142 2972 
Q 928 2841 928 2578 
Q 928 2378 1081 2264 
Q 1234 2150 1697 2047 
L 1894 2003 
Q 2506 1872 2764 1633 
Q 3022 1394 3022 966 
Q 3022 478 2636 193 
Q 2250 -91 1575 -91 
Q 1294 -91 989 -36 
Q 684 19 347 128 
L 347 722 
Q 666 556 975 473 
Q 1284 391 1588 391 
Q 1994 391 2212 530 
Q 2431 669 2431 922 
Q 2431 1156 2273 1281 
Q 2116 1406 1581 1522 
L 1381 1569 
Q 847 1681 609 1914 
Q 372 2147 372 2553 
Q 372 3047 722 3315 
Q 1072 3584 1716 3584 
Q 2034 3584 2315 3537 
Q 2597 3491 2834 3397 
z
" transform="scale(0.015625)"/>
      </defs>
      <use xlink:href="#DejaVuSans-54"/>
      <use xlink:href="#DejaVuSans-65" x="44.083984"/>
      <use xlink:href="#DejaVuSans-73" x="105.607422"/>
      <use xlink:href="#DejaVuSans-74" x="157.707031"/>
     </g>
    </g>
   </g>
  </g>
 </g>
 <defs>
  <clipPath id="pe100f340fd">
   <rect x="39.03875" y="25.3575" width="593.25" height="290.34"/>
  </clipPath>
 </defs>
</svg>
